<svg xmlns="http://www.w3.org/2000/svg" xmlns:xlink="http://www.w3.org/1999/xlink" width="800" zoomAndPan="magnify" viewBox="0 0 600 149.999998" height="200" preserveAspectRatio="xMidYMid meet" version="1.0"><defs><clipPath id="083548fbab"><path d="M 29.648438 42.84375 L 100.460938 42.84375 L 100.460938 113.652344 L 29.648438 113.652344 Z M 29.648438 42.84375 " clip-rule="nonzero"/></clipPath><clipPath id="bb52f31673"><path d="M 65.054688 42.84375 C 45.5 42.84375 29.648438 58.695312 29.648438 78.25 C 29.648438 97.800781 45.5 113.652344 65.054688 113.652344 C 84.609375 113.652344 100.460938 97.800781 100.460938 78.25 C 100.460938 58.695312 84.609375 42.84375 65.054688 42.84375 Z M 65.054688 42.84375 " clip-rule="nonzero"/></clipPath><clipPath id="9f99620826"><path d="M 47.023438 60.21875 L 83.085938 60.21875 L 83.085938 96.28125 L 47.023438 96.28125 Z M 47.023438 60.21875 " clip-rule="nonzero"/></clipPath><clipPath id="900f4f9f54"><path d="M 65.054688 60.21875 C 55.097656 60.21875 47.023438 68.289062 47.023438 78.25 C 47.023438 88.207031 55.097656 96.28125 65.054688 96.28125 C 75.011719 96.28125 83.085938 88.207031 83.085938 78.25 C 83.085938 68.289062 75.011719 60.21875 65.054688 60.21875 Z M 65.054688 60.21875 " clip-rule="nonzero"/></clipPath><clipPath id="cb2d257ada"><path d="M 77.238281 71.765625 L 104.757812 71.765625 L 104.757812 83.035156 L 77.238281 83.035156 Z M 77.238281 71.765625 " clip-rule="nonzero"/></clipPath><clipPath id="5f472c63e4"><path d="M 318.730469 53.773438 L 354.792969 53.773438 L 354.792969 89.835938 L 318.730469 89.835938 Z M 318.730469 53.773438 " clip-rule="nonzero"/></clipPath><clipPath id="72cc34eee7"><path d="M 336.761719 53.773438 C 326.804688 53.773438 318.730469 61.847656 318.730469 71.804688 C 318.730469 81.765625 326.804688 89.835938 336.761719 89.835938 C 346.722656 89.835938 354.792969 81.765625 354.792969 71.804688 C 354.792969 61.847656 346.722656 53.773438 336.761719 53.773438 Z M 336.761719 53.773438 " clip-rule="nonzero"/></clipPath><clipPath id="d8481a6833"><path d="M 304.425781 42.816406 L 378.707031 42.816406 L 378.707031 117.097656 L 304.425781 117.097656 Z M 304.425781 42.816406 " clip-rule="nonzero"/></clipPath><clipPath id="7302cd1fc2"><path d="M 341.566406 117.097656 C 362.078125 117.097656 378.707031 100.46875 378.707031 79.957031 C 378.707031 59.445312 362.078125 42.816406 341.566406 42.816406 C 321.054688 42.816406 304.425781 59.445312 304.425781 79.957031 C 304.425781 100.46875 321.054688 117.097656 341.566406 117.097656 Z M 341.566406 117.097656 " clip-rule="nonzero"/></clipPath><clipPath id="e865d8da7d"><path d="M 323.542969 61.953125 L 359.605469 61.953125 L 359.605469 98.015625 L 323.542969 98.015625 Z M 323.542969 61.953125 " clip-rule="nonzero"/></clipPath><clipPath id="2659d9bc7c"><path d="M 341.574219 61.953125 C 331.617188 61.953125 323.542969 70.027344 323.542969 79.984375 C 323.542969 89.945312 331.617188 98.015625 341.574219 98.015625 C 351.535156 98.015625 359.605469 89.945312 359.605469 79.984375 C 359.605469 70.027344 351.535156 61.953125 341.574219 61.953125 Z M 341.574219 61.953125 " clip-rule="nonzero"/></clipPath><clipPath id="0b53d8b559"><path d="M 323.550781 79.984375 L 359.476562 79.984375 L 359.476562 117.296875 L 323.550781 117.296875 Z M 323.550781 79.984375 " clip-rule="nonzero"/></clipPath><clipPath id="e072ca0185"><path d="M 140.894531 42.84375 L 211.707031 42.84375 L 211.707031 113.652344 L 140.894531 113.652344 Z M 140.894531 42.84375 " clip-rule="nonzero"/></clipPath><clipPath id="ea234df2d3"><path d="M 176.300781 42.84375 C 156.746094 42.84375 140.894531 58.695312 140.894531 78.25 C 140.894531 97.800781 156.746094 113.652344 176.300781 113.652344 C 195.855469 113.652344 211.707031 97.800781 211.707031 78.25 C 211.707031 58.695312 195.855469 42.84375 176.300781 42.84375 Z M 176.300781 42.84375 " clip-rule="nonzero"/></clipPath><clipPath id="9ac68c7b55"><path d="M 158.269531 60.21875 L 194.332031 60.21875 L 194.332031 96.28125 L 158.269531 96.28125 Z M 158.269531 60.21875 " clip-rule="nonzero"/></clipPath><clipPath id="eec9bca655"><path d="M 176.300781 60.21875 C 166.34375 60.21875 158.269531 68.289062 158.269531 78.25 C 158.269531 88.207031 166.34375 96.28125 176.300781 96.28125 C 186.257812 96.28125 194.332031 88.207031 194.332031 78.25 C 194.332031 68.289062 186.257812 60.21875 176.300781 60.21875 Z M 176.300781 60.21875 " clip-rule="nonzero"/></clipPath><clipPath id="fc6bd54e25"><path d="M 149.578125 70.734375 L 209.183594 70.734375 L 209.183594 82.660156 L 149.578125 82.660156 Z M 149.578125 70.734375 " clip-rule="nonzero"/></clipPath><clipPath id="1f2d714667"><path d="M 176.300781 82.65625 L 217.023438 82.65625 L 217.023438 90.683594 L 176.300781 90.683594 Z M 176.300781 82.65625 " clip-rule="nonzero"/></clipPath><clipPath id="d623e38b57"><path d="M 236.019531 57.707031 L 272.082031 57.707031 L 272.082031 93.765625 L 236.019531 93.765625 Z M 236.019531 57.707031 " clip-rule="nonzero"/></clipPath><clipPath id="aa79fa4b2e"><path d="M 254.050781 57.707031 C 244.09375 57.707031 236.019531 65.777344 236.019531 75.734375 C 236.019531 85.695312 244.09375 93.765625 254.050781 93.765625 C 264.011719 93.765625 272.082031 85.695312 272.082031 75.734375 C 272.082031 65.777344 264.011719 57.707031 254.050781 57.707031 Z M 254.050781 57.707031 " clip-rule="nonzero"/></clipPath><clipPath id="f3dbb584eb"><path d="M 234 56 L 277 56 L 277 99 L 234 99 Z M 234 56 " clip-rule="nonzero"/></clipPath><clipPath id="a067152a6f"><path d="M 282.441406 89.875 L 243.25 104.730469 L 228.398438 65.539062 L 267.589844 50.683594 Z M 282.441406 89.875 " clip-rule="nonzero"/></clipPath><clipPath id="1147adedac"><path d="M 262.847656 97.304688 C 273.667969 93.203125 279.117188 81.101562 275.015625 70.28125 C 270.914062 59.457031 258.816406 54.007812 247.992188 58.113281 C 237.171875 62.214844 231.722656 74.3125 235.824219 85.132812 C 239.925781 95.957031 252.023438 101.40625 262.847656 97.304688 Z M 262.847656 97.304688 " clip-rule="nonzero"/></clipPath><clipPath id="a2cf28f65b"><path d="M 221.625 42.824219 L 292.433594 42.824219 L 292.433594 113.636719 L 221.625 113.636719 Z M 221.625 42.824219 " clip-rule="nonzero"/></clipPath><clipPath id="35f8a48a3a"><path d="M 257.03125 42.824219 C 237.476562 42.824219 221.625 58.675781 221.625 78.230469 C 221.625 97.785156 237.476562 113.636719 257.03125 113.636719 C 276.582031 113.636719 292.433594 97.785156 292.433594 78.230469 C 292.433594 58.675781 276.582031 42.824219 257.03125 42.824219 Z M 257.03125 42.824219 " clip-rule="nonzero"/></clipPath><clipPath id="fe6760c868"><path d="M 239 60.199219 L 275.0625 60.199219 L 275.0625 96.261719 L 239 96.261719 Z M 239 60.199219 " clip-rule="nonzero"/></clipPath><clipPath id="b6bc9fe6c1"><path d="M 257.03125 60.199219 C 247.070312 60.199219 239 68.273438 239 78.230469 C 239 88.1875 247.070312 96.261719 257.03125 96.261719 C 266.988281 96.261719 275.0625 88.1875 275.0625 78.230469 C 275.0625 68.273438 266.988281 60.199219 257.03125 60.199219 Z M 257.03125 60.199219 " clip-rule="nonzero"/></clipPath><clipPath id="578d3f2cb5"><path d="M 110.007812 24 L 130.253906 24 L 130.253906 112.980469 L 110.007812 112.980469 Z M 110.007812 24 " clip-rule="nonzero"/></clipPath><clipPath id="5eb3e32f22"><path d="M 276.824219 75.734375 L 292.433594 75.734375 L 292.433594 113.058594 L 276.824219 113.058594 Z M 276.824219 75.734375 " clip-rule="nonzero"/></clipPath><clipPath id="cb6d472ae7"><path d="M 304.601562 77.402344 L 323.5 77.402344 L 323.5 112.789062 L 304.601562 112.789062 Z M 304.601562 77.402344 " clip-rule="nonzero"/></clipPath><clipPath id="147bf68fda"><path d="M 359.550781 77.402344 L 378.675781 77.402344 L 378.675781 112.789062 L 359.550781 112.789062 Z M 359.550781 77.402344 " clip-rule="nonzero"/></clipPath><clipPath id="ad8da24ed0"><path d="M 389.964844 42.824219 L 460.777344 42.824219 L 460.777344 113.636719 L 389.964844 113.636719 Z M 389.964844 42.824219 " clip-rule="nonzero"/></clipPath><clipPath id="9948f7443d"><path d="M 425.371094 42.824219 C 405.816406 42.824219 389.964844 58.675781 389.964844 78.230469 C 389.964844 97.785156 405.816406 113.636719 425.371094 113.636719 C 444.925781 113.636719 460.777344 97.785156 460.777344 78.230469 C 460.777344 58.675781 444.925781 42.824219 425.371094 42.824219 Z M 425.371094 42.824219 " clip-rule="nonzero"/></clipPath><clipPath id="50f0728970"><path d="M 390.1875 24 L 408.488281 24 L 408.488281 81.882812 L 390.1875 81.882812 Z M 390.1875 24 " clip-rule="nonzero"/></clipPath><clipPath id="d67e47409c"><path d="M 407.339844 60.199219 L 443.402344 60.199219 L 443.402344 96.261719 L 407.339844 96.261719 Z M 407.339844 60.199219 " clip-rule="nonzero"/></clipPath><clipPath id="9075cdb0d6"><path d="M 425.371094 60.199219 C 415.414062 60.199219 407.339844 68.273438 407.339844 78.230469 C 407.339844 88.1875 415.414062 96.261719 425.371094 96.261719 C 435.328125 96.261719 443.402344 88.1875 443.402344 78.230469 C 443.402344 68.273438 435.328125 60.199219 425.371094 60.199219 Z M 425.371094 60.199219 " clip-rule="nonzero"/></clipPath><clipPath id="4fd4673b0e"><path d="M 516.796875 24 L 537.042969 24 L 537.042969 112.980469 L 516.796875 112.980469 Z M 516.796875 24 " clip-rule="nonzero"/></clipPath><clipPath id="79e276331a"><path d="M 555.042969 23.808594 L 575.289062 23.808594 L 575.289062 112.789062 L 555.042969 112.789062 Z M 555.042969 23.808594 " clip-rule="nonzero"/></clipPath><clipPath id="2f1e0263df"><path d="M 478.550781 24.675781 L 498.796875 24.675781 L 498.796875 113.652344 L 478.550781 113.652344 Z M 478.550781 24.675781 " clip-rule="nonzero"/></clipPath><clipPath id="cfe5d72bbe"><path d="M 473.527344 39.910156 L 501.046875 39.910156 L 501.046875 46.945312 L 473.527344 46.945312 Z M 473.527344 39.910156 " clip-rule="nonzero"/></clipPath></defs><rect x="-60" width="720" fill="#ffffff" y="-15" height="179.999997" fill-opacity="1"/><rect x="-60" width="720" fill="#ffffff" y="-15" height="179.999997" fill-opacity="1"/><g clip-path="url(#083548fbab)"><g clip-path="url(#bb52f31673)"><path fill="#06397d" d="M 29.648438 42.84375 L 100.460938 42.84375 L 100.460938 113.652344 L 29.648438 113.652344 Z M 29.648438 42.84375 " fill-opacity="1" fill-rule="nonzero"/></g></g><g clip-path="url(#9f99620826)"><g clip-path="url(#900f4f9f54)"><path fill="#ffffff" d="M 47.023438 60.21875 L 83.085938 60.21875 L 83.085938 96.28125 L 47.023438 96.28125 Z M 47.023438 60.21875 " fill-opacity="1" fill-rule="nonzero"/></g></g><g clip-path="url(#cb2d257ada)"><path fill="#ffffff" d="M 77.238281 71.765625 L 104.746094 71.765625 L 104.746094 83.035156 L 77.238281 83.035156 Z M 77.238281 71.765625 " fill-opacity="1" fill-rule="nonzero"/></g><g clip-path="url(#5f472c63e4)"><g clip-path="url(#72cc34eee7)"><path fill="#06397d" d="M 318.730469 53.773438 L 354.792969 53.773438 L 354.792969 89.835938 L 318.730469 89.835938 Z M 318.730469 53.773438 " fill-opacity="1" fill-rule="nonzero"/></g></g><g clip-path="url(#d8481a6833)"><g clip-path="url(#7302cd1fc2)"><path fill="#06397d" d="M 378.707031 117.097656 L 304.425781 117.097656 L 304.425781 42.816406 L 378.707031 42.816406 Z M 378.707031 117.097656 " fill-opacity="1" fill-rule="nonzero"/></g></g><g clip-path="url(#e865d8da7d)"><g clip-path="url(#2659d9bc7c)"><path fill="#ffffff" d="M 323.542969 61.953125 L 359.605469 61.953125 L 359.605469 98.015625 L 323.542969 98.015625 Z M 323.542969 61.953125 " fill-opacity="1" fill-rule="nonzero"/></g></g><g clip-path="url(#0b53d8b559)"><path fill="#ffffff" d="M 323.550781 79.984375 L 359.476562 79.984375 L 359.476562 117.3125 L 323.550781 117.3125 Z M 323.550781 79.984375 " fill-opacity="1" fill-rule="nonzero"/></g><g clip-path="url(#e072ca0185)"><g clip-path="url(#ea234df2d3)"><path fill="#06397d" d="M 140.894531 42.84375 L 211.707031 42.84375 L 211.707031 113.652344 L 140.894531 113.652344 Z M 140.894531 42.84375 " fill-opacity="1" fill-rule="nonzero"/></g></g><g clip-path="url(#9ac68c7b55)"><g clip-path="url(#eec9bca655)"><path fill="#ffffff" d="M 158.269531 60.21875 L 194.332031 60.21875 L 194.332031 96.28125 L 158.269531 96.28125 Z M 158.269531 60.21875 " fill-opacity="1" fill-rule="nonzero"/></g></g><g clip-path="url(#fc6bd54e25)"><path fill="#06397d" d="M 209.183594 70.734375 L 209.183594 82.660156 L 149.59375 82.660156 L 149.59375 70.734375 Z M 209.183594 70.734375 " fill-opacity="1" fill-rule="nonzero"/></g><g clip-path="url(#1f2d714667)"><path fill="#ffffff" d="M 176.300781 82.65625 L 217.015625 82.65625 L 217.015625 90.683594 L 176.300781 90.683594 Z M 176.300781 82.65625 " fill-opacity="1" fill-rule="nonzero"/></g><g clip-path="url(#d623e38b57)"><g clip-path="url(#aa79fa4b2e)"><path fill="#06397d" d="M 236.019531 57.707031 L 272.082031 57.707031 L 272.082031 93.765625 L 236.019531 93.765625 Z M 236.019531 57.707031 " fill-opacity="1" fill-rule="nonzero"/></g></g><g clip-path="url(#f3dbb584eb)"><g clip-path="url(#a067152a6f)"><g clip-path="url(#1147adedac)"><path fill="#06397d" d="M 282.441406 89.875 L 243.25 104.730469 L 228.398438 65.539062 L 267.589844 50.683594 Z M 282.441406 89.875 " fill-opacity="1" fill-rule="nonzero"/></g></g></g><g clip-path="url(#a2cf28f65b)"><g clip-path="url(#35f8a48a3a)"><path fill="#06397d" d="M 221.625 42.824219 L 292.433594 42.824219 L 292.433594 113.636719 L 221.625 113.636719 Z M 221.625 42.824219 " fill-opacity="1" fill-rule="nonzero"/></g></g><g clip-path="url(#fe6760c868)"><g clip-path="url(#b6bc9fe6c1)"><path fill="#ffffff" d="M 239 60.199219 L 275.0625 60.199219 L 275.0625 96.261719 L 239 96.261719 Z M 239 60.199219 " fill-opacity="1" fill-rule="nonzero"/></g></g><g clip-path="url(#578d3f2cb5)"><path fill="#06397d" d="M 110.007812 24 L 130.253906 24 L 130.253906 112.972656 L 110.007812 112.972656 Z M 110.007812 24 " fill-opacity="1" fill-rule="nonzero"/></g><g clip-path="url(#5eb3e32f22)"><path fill="#06397d" d="M 276.824219 75.734375 L 292.433594 75.734375 L 292.433594 113.050781 L 276.824219 113.050781 Z M 276.824219 75.734375 " fill-opacity="1" fill-rule="nonzero"/></g><g clip-path="url(#cb6d472ae7)"><path fill="#06397d" d="M 304.601562 77.402344 L 323.5 77.402344 L 323.5 112.765625 L 304.601562 112.765625 Z M 304.601562 77.402344 " fill-opacity="1" fill-rule="nonzero"/></g><g clip-path="url(#147bf68fda)"><path fill="#06397d" d="M 359.550781 77.402344 L 378.675781 77.402344 L 378.675781 112.8125 L 359.550781 112.8125 Z M 359.550781 77.402344 " fill-opacity="1" fill-rule="nonzero"/></g><g clip-path="url(#ad8da24ed0)"><g clip-path="url(#9948f7443d)"><path fill="#06397d" d="M 389.964844 42.824219 L 460.777344 42.824219 L 460.777344 113.636719 L 389.964844 113.636719 Z M 389.964844 42.824219 " fill-opacity="1" fill-rule="nonzero"/></g></g><g clip-path="url(#50f0728970)"><path fill="#06397d" d="M 390.1875 24 L 408.488281 24 L 408.488281 81.902344 L 390.1875 81.902344 Z M 390.1875 24 " fill-opacity="1" fill-rule="nonzero"/></g><g clip-path="url(#d67e47409c)"><g clip-path="url(#9075cdb0d6)"><path fill="#ffffff" d="M 407.339844 60.199219 L 443.402344 60.199219 L 443.402344 96.261719 L 407.339844 96.261719 Z M 407.339844 60.199219 " fill-opacity="1" fill-rule="nonzero"/></g></g><g clip-path="url(#4fd4673b0e)"><path fill="#06397d" d="M 516.796875 24 L 537.042969 24 L 537.042969 112.972656 L 516.796875 112.972656 Z M 516.796875 24 " fill-opacity="1" fill-rule="nonzero"/></g><g clip-path="url(#79e276331a)"><path fill="#06397d" d="M 555.042969 23.808594 L 575.289062 23.808594 L 575.289062 112.78125 L 555.042969 112.78125 Z M 555.042969 23.808594 " fill-opacity="1" fill-rule="nonzero"/></g><g clip-path="url(#2f1e0263df)"><path fill="#06397d" d="M 478.550781 24.675781 L 498.796875 24.675781 L 498.796875 113.648438 L 478.550781 113.648438 Z M 478.550781 24.675781 " fill-opacity="1" fill-rule="nonzero"/></g><g clip-path="url(#cfe5d72bbe)"><path fill="#ffffff" d="M 473.527344 39.910156 L 501.046875 39.910156 L 501.046875 46.945312 L 473.527344 46.945312 Z M 473.527344 39.910156 " fill-opacity="1" fill-rule="nonzero"/></g></svg>