<svg xmlns="http://www.w3.org/2000/svg" xmlns:xlink="http://www.w3.org/1999/xlink" width="500" zoomAndPan="magnify" viewBox="0 0 375 374.999991" height="500" preserveAspectRatio="xMidYMid meet" version="1.0"><defs><clipPath id="ce779e32cd"><path d="M 24.742188 129.6875 L 182.238281 129.6875 L 182.238281 287.183594 L 24.742188 287.183594 Z M 24.742188 129.6875 " clip-rule="nonzero"/></clipPath><clipPath id="b1f9be50b0"><path d="M 103.488281 129.6875 C 59.996094 129.6875 24.742188 164.945312 24.742188 208.433594 C 24.742188 251.925781 59.996094 287.183594 103.488281 287.183594 C 146.980469 287.183594 182.238281 251.925781 182.238281 208.433594 C 182.238281 164.945312 146.980469 129.6875 103.488281 129.6875 Z M 103.488281 129.6875 " clip-rule="nonzero"/></clipPath><clipPath id="94811442e6"><path d="M 63.382812 168.332031 L 143.59375 168.332031 L 143.59375 248.539062 L 63.382812 248.539062 Z M 63.382812 168.332031 " clip-rule="nonzero"/></clipPath><clipPath id="c807d03caa"><path d="M 103.488281 168.332031 C 81.339844 168.332031 63.382812 186.285156 63.382812 208.433594 C 63.382812 230.585938 81.339844 248.539062 103.488281 248.539062 C 125.636719 248.539062 143.59375 230.585938 143.59375 208.433594 C 143.59375 186.285156 125.636719 168.332031 103.488281 168.332031 Z M 103.488281 168.332031 " clip-rule="nonzero"/></clipPath><clipPath id="892cdcbf37"><path d="M 130.585938 194.019531 L 182.238281 194.019531 L 182.238281 219.078125 L 130.585938 219.078125 Z M 130.585938 194.019531 " clip-rule="nonzero"/></clipPath><clipPath id="4b1d3fa186"><path d="M 192.761719 129.6875 L 350.257812 129.6875 L 350.257812 287.183594 L 192.761719 287.183594 Z M 192.761719 129.6875 " clip-rule="nonzero"/></clipPath><clipPath id="b212e3ca15"><path d="M 271.511719 129.6875 C 228.019531 129.6875 192.761719 164.945312 192.761719 208.433594 C 192.761719 251.925781 228.019531 287.183594 271.511719 287.183594 C 315.003906 287.183594 350.257812 251.925781 350.257812 208.433594 C 350.257812 164.945312 315.003906 129.6875 271.511719 129.6875 Z M 271.511719 129.6875 " clip-rule="nonzero"/></clipPath><clipPath id="f190cf381c"><path d="M 193.253906 87.816406 L 233.957031 87.816406 L 233.957031 216.5625 L 193.253906 216.5625 Z M 193.253906 87.816406 " clip-rule="nonzero"/></clipPath><clipPath id="201419736b"><path d="M 231.40625 168.332031 L 311.617188 168.332031 L 311.617188 248.539062 L 231.40625 248.539062 Z M 231.40625 168.332031 " clip-rule="nonzero"/></clipPath><clipPath id="854463443e"><path d="M 271.511719 168.332031 C 249.363281 168.332031 231.40625 186.285156 231.40625 208.433594 C 231.40625 230.585938 249.363281 248.539062 271.511719 248.539062 C 293.660156 248.539062 311.617188 230.585938 311.617188 208.433594 C 311.617188 186.285156 293.660156 168.332031 271.511719 168.332031 Z M 271.511719 168.332031 " clip-rule="nonzero"/></clipPath></defs><rect x="-37.5" width="450" fill="#ffffff" y="-37.499999" height="449.999989" fill-opacity="1"/><rect x="-37.5" width="450" fill="#ffffff" y="-37.499999" height="449.999989" fill-opacity="1"/><g clip-path="url(#ce779e32cd)"><g clip-path="url(#b1f9be50b0)"><path fill="#06397d" d="M 24.742188 129.6875 L 182.238281 129.6875 L 182.238281 287.183594 L 24.742188 287.183594 Z M 24.742188 129.6875 " fill-opacity="1" fill-rule="nonzero"/></g></g><g clip-path="url(#94811442e6)"><g clip-path="url(#c807d03caa)"><path fill="#ffffff" d="M 63.382812 168.332031 L 143.59375 168.332031 L 143.59375 248.539062 L 63.382812 248.539062 Z M 63.382812 168.332031 " fill-opacity="1" fill-rule="nonzero"/></g></g><g clip-path="url(#892cdcbf37)"><path fill="#ffffff" d="M 130.585938 194.019531 L 182.273438 194.019531 L 182.273438 219.078125 L 130.585938 219.078125 Z M 130.585938 194.019531 " fill-opacity="1" fill-rule="nonzero"/></g><g clip-path="url(#4b1d3fa186)"><g clip-path="url(#b212e3ca15)"><path fill="#06397d" d="M 192.761719 129.6875 L 350.257812 129.6875 L 350.257812 287.183594 L 192.761719 287.183594 Z M 192.761719 129.6875 " fill-opacity="1" fill-rule="nonzero"/></g></g><g clip-path="url(#f190cf381c)"><path fill="#06397d" d="M 193.253906 87.816406 L 233.957031 87.816406 L 233.957031 216.601562 L 193.253906 216.601562 Z M 193.253906 87.816406 " fill-opacity="1" fill-rule="nonzero"/></g><g clip-path="url(#201419736b)"><g clip-path="url(#854463443e)"><path fill="#ffffff" d="M 231.40625 168.332031 L 311.617188 168.332031 L 311.617188 248.539062 L 231.40625 248.539062 Z M 231.40625 168.332031 " fill-opacity="1" fill-rule="nonzero"/></g></g></svg>